<svg width="46" height="47" viewBox="0 0 46 47" fill="none" xmlns="http://www.w3.org/2000/svg">
<path d="M3.744 13.672C3.744 11.72 4.592 10.088 6.288 8.776C7.984 7.464 10.288 6.488 13.2 5.848C13.392 4.504 13.936 3.432 14.832 2.632C15.728 1.832 16.528 1.432 17.232 1.432C17.968 1.432 18.544 1.64 18.96 2.056C19.408 2.44 19.632 2.968 19.632 3.64C19.632 5.208 18.528 6.296 16.32 6.904C15.84 15.864 15.6 20.456 15.6 20.68C16.56 20.136 17.68 19.624 18.96 19.144C20.272 18.632 21.2 18.376 21.744 18.376C22.288 18.376 22.56 18.488 22.56 18.712C22.56 19.128 22.368 19.4 21.984 19.528C19.904 20.2 17.76 21.208 15.552 22.552C15.296 29.336 15.136 33.4 15.072 34.744C14.848 38.52 14.016 41.4 12.576 43.384C11.136 45.368 9.136 46.36 6.576 46.36C4.56 46.36 2.96 45.528 1.776 43.864C0.592 42.232 0 40.424 0 38.44C0 35.624 0.992 32.968 2.976 30.472C4.96 27.944 7.984 25.352 12.048 22.696L13.056 7.528C8.992 8.232 6.96 9.976 6.96 12.76C6.96 13.56 6.784 14.184 6.432 14.632C6.112 15.08 5.696 15.304 5.184 15.304C4.224 15.304 3.744 14.76 3.744 13.672ZM7.248 44.632C9.424 44.632 10.704 42.216 11.088 37.384C11.28 34.952 11.44 32.536 11.568 30.136C11.728 27.736 11.84 26.024 11.904 25C10.592 25.928 9.536 26.728 8.736 27.4C7.936 28.04 7.072 28.856 6.144 29.848C4.384 31.832 3.504 34.232 3.504 37.048C3.504 39.768 3.968 41.848 4.896 43.288C5.504 44.184 6.288 44.632 7.248 44.632ZM17.664 3.064C16.96 3.064 16.544 3.784 16.416 5.224C17.568 4.872 18.144 4.408 18.144 3.832C18.144 3.32 17.984 3.064 17.664 3.064ZM33.8899 3.208C34.0819 3.176 34.5939 3.16 35.4259 3.16C36.2899 3.16 37.3139 3.32 38.4979 3.64C39.7139 3.928 40.8819 4.424 42.0019 5.128C43.1539 5.8 44.0659 6.808 44.7379 8.152C45.4419 9.464 45.7939 11.032 45.7939 12.856C45.7939 15.864 44.6259 18.296 42.2899 20.152C39.9539 22.008 36.8659 22.936 33.0259 22.936C33.0259 29.176 31.9219 32.296 29.7139 32.296C28.2419 32.296 27.5059 31.672 27.5059 30.424C27.5059 30.04 27.6979 29.512 28.0819 28.84C28.4659 28.168 28.7379 27.4 28.8979 26.536C29.0579 25.672 29.1859 24.28 29.2819 22.36C27.9699 21.944 27.3139 21.368 27.3139 20.632C27.3139 19.896 27.6499 19.528 28.3219 19.528C28.6739 19.528 29.0259 19.576 29.3779 19.672C29.7939 11.128 30.0819 6.408 30.2419 5.512C28.4179 5.96 26.8979 6.696 25.6819 7.72C24.4979 8.744 23.9059 9.96 23.9059 11.368C23.9059 12.168 23.7299 12.792 23.3779 13.24C23.0579 13.688 22.6419 13.912 22.1299 13.912C21.1699 13.912 20.6899 13.368 20.6899 12.28C20.6899 10.136 21.6339 8.296 23.5219 6.76C25.4419 5.192 27.8259 4.136 30.6739 3.592C31.2819 1.544 32.1299 0.519998 33.2179 0.519998C33.6659 0.519998 33.8899 1.416 33.8899 3.208ZM42.1939 14.2C42.1939 11.32 41.3619 9.128 39.6979 7.624C38.0659 6.088 36.0819 5.272 33.7459 5.176C33.2659 10.84 33.0259 16.168 33.0259 21.16C33.4739 21.224 33.8259 21.256 34.0819 21.256C36.7699 21.256 38.7859 20.568 40.1299 19.192C41.5059 17.816 42.1939 16.152 42.1939 14.2Z" fill="#1E1E1E"/>
</svg>
